<mxfile host="app.diagrams.net" modified="2024-04-16T08:14:59.450Z" agent="Mozilla/5.0 (X11; Linux x86_64; rv:121.0) Gecko/20100101 Firefox/121.0" etag="VEd91vlGkeM0DLcqfVEP" version="24.2.3" type="device">
  <diagram name="Page-1" id="mjZK1fvzyKBitb5LzHdZ">
    <mxGraphModel dx="1195" dy="625" grid="0" gridSize="10" guides="1" tooltips="1" connect="1" arrows="1" fold="1" page="1" pageScale="1" pageWidth="850" pageHeight="1100" math="0" shadow="0">
      <root>
        <mxCell id="0" />
        <mxCell id="1" parent="0" />
        <mxCell id="0vvJPa2mzWQp3PvdwFzy-2" value="" style="curved=1;endArrow=classic;html=1;rounded=0;" parent="1" edge="1">
          <mxGeometry width="50" height="50" relative="1" as="geometry">
            <mxPoint x="652" y="88" as="sourcePoint" />
            <mxPoint x="642" y="148" as="targetPoint" />
            <Array as="points">
              <mxPoint x="662" y="88" />
              <mxPoint x="632" y="108" />
              <mxPoint x="662" y="118" />
              <mxPoint x="642" y="128" />
              <mxPoint x="632" y="118" />
            </Array>
          </mxGeometry>
        </mxCell>
        <mxCell id="0vvJPa2mzWQp3PvdwFzy-3" value="0" style="text;html=1;align=center;verticalAlign=middle;whiteSpace=wrap;rounded=0;" parent="1" vertex="1">
          <mxGeometry x="582" y="48" width="20" height="30" as="geometry" />
        </mxCell>
        <mxCell id="0vvJPa2mzWQp3PvdwFzy-4" value="1" style="text;html=1;align=center;verticalAlign=middle;whiteSpace=wrap;rounded=0;" parent="1" vertex="1">
          <mxGeometry x="642" y="48" width="20" height="30" as="geometry" />
        </mxCell>
        <mxCell id="0vvJPa2mzWQp3PvdwFzy-5" value="..." style="text;html=1;align=center;verticalAlign=middle;whiteSpace=wrap;rounded=0;" parent="1" vertex="1">
          <mxGeometry x="652" y="88" width="60" height="30" as="geometry" />
        </mxCell>
        <mxCell id="0vvJPa2mzWQp3PvdwFzy-6" value="" style="curved=1;endArrow=classic;html=1;rounded=0;" parent="1" edge="1">
          <mxGeometry width="50" height="50" relative="1" as="geometry">
            <mxPoint x="732" y="88" as="sourcePoint" />
            <mxPoint x="722" y="148" as="targetPoint" />
            <Array as="points">
              <mxPoint x="742" y="88" />
              <mxPoint x="712" y="108" />
              <mxPoint x="742" y="118" />
              <mxPoint x="722" y="128" />
              <mxPoint x="712" y="118" />
            </Array>
          </mxGeometry>
        </mxCell>
        <mxCell id="0vvJPa2mzWQp3PvdwFzy-7" value="100" style="text;whiteSpace=wrap;html=1;" parent="1" vertex="1">
          <mxGeometry x="722" y="48" width="20" height="20" as="geometry" />
        </mxCell>
        <mxCell id="0vvJPa2mzWQp3PvdwFzy-8" value="" style="endArrow=classic;html=1;rounded=0;" parent="1" edge="1">
          <mxGeometry width="50" height="50" relative="1" as="geometry">
            <mxPoint x="140" y="320" as="sourcePoint" />
            <mxPoint x="140" y="536" as="targetPoint" />
          </mxGeometry>
        </mxCell>
        <mxCell id="0vvJPa2mzWQp3PvdwFzy-9" value="Time" style="text;html=1;align=center;verticalAlign=middle;whiteSpace=wrap;rounded=0;" parent="1" vertex="1">
          <mxGeometry x="70" y="400" width="60" height="30" as="geometry" />
        </mxCell>
        <mxCell id="0vvJPa2mzWQp3PvdwFzy-19" value="Dkernel()" style="rounded=1;whiteSpace=wrap;html=1;" parent="1" vertex="1">
          <mxGeometry x="115" y="164" width="70" height="30" as="geometry" />
        </mxCell>
        <mxCell id="0vvJPa2mzWQp3PvdwFzy-20" value="" style="curved=1;endArrow=classic;html=1;rounded=0;" parent="1" edge="1">
          <mxGeometry width="50" height="50" relative="1" as="geometry">
            <mxPoint x="807" y="88" as="sourcePoint" />
            <mxPoint x="797" y="148" as="targetPoint" />
            <Array as="points">
              <mxPoint x="817" y="88" />
              <mxPoint x="787" y="108" />
              <mxPoint x="817" y="118" />
              <mxPoint x="797" y="128" />
              <mxPoint x="787" y="118" />
            </Array>
          </mxGeometry>
        </mxCell>
        <mxCell id="0vvJPa2mzWQp3PvdwFzy-21" value="127" style="text;whiteSpace=wrap;html=1;" parent="1" vertex="1">
          <mxGeometry x="797" y="48" width="20" height="20" as="geometry" />
        </mxCell>
        <mxCell id="0vvJPa2mzWQp3PvdwFzy-25" value="..." style="text;html=1;align=center;verticalAlign=middle;whiteSpace=wrap;rounded=0;" parent="1" vertex="1">
          <mxGeometry x="739" y="88" width="60" height="30" as="geometry" />
        </mxCell>
        <mxCell id="wPW2TgHlyFbGibVKd6zH-31" style="edgeStyle=orthogonalEdgeStyle;rounded=0;orthogonalLoop=1;jettySize=auto;html=1;exitX=0.5;exitY=1;exitDx=0;exitDy=0;exitPerimeter=0;" edge="1" parent="1" source="wPW2TgHlyFbGibVKd6zH-19">
          <mxGeometry relative="1" as="geometry">
            <mxPoint x="190" y="364.16666666666674" as="targetPoint" />
          </mxGeometry>
        </mxCell>
        <mxCell id="wPW2TgHlyFbGibVKd6zH-19" value="" style="html=1;whiteSpace=wrap;shape=isoCube2;backgroundOutline=1;isoAngle=15;fillColor=#FFCC99;" vertex="1" parent="1">
          <mxGeometry x="174.25" y="267" width="31.5" height="32" as="geometry" />
        </mxCell>
        <mxCell id="wPW2TgHlyFbGibVKd6zH-20" value="Block0" style="text;html=1;align=center;verticalAlign=middle;resizable=0;points=[];autosize=1;strokeColor=none;fillColor=none;" vertex="1" parent="1">
          <mxGeometry x="163" y="241" width="54" height="26" as="geometry" />
        </mxCell>
        <mxCell id="wPW2TgHlyFbGibVKd6zH-32" style="edgeStyle=orthogonalEdgeStyle;rounded=0;orthogonalLoop=1;jettySize=auto;html=1;exitX=0.5;exitY=1;exitDx=0;exitDy=0;exitPerimeter=0;" edge="1" parent="1" source="wPW2TgHlyFbGibVKd6zH-21">
          <mxGeometry relative="1" as="geometry">
            <mxPoint x="260" y="363.33333333333337" as="targetPoint" />
          </mxGeometry>
        </mxCell>
        <mxCell id="wPW2TgHlyFbGibVKd6zH-21" value="" style="html=1;whiteSpace=wrap;shape=isoCube2;backgroundOutline=1;isoAngle=15;fillColor=#99FFCC;" vertex="1" parent="1">
          <mxGeometry x="244.25" y="267" width="31.5" height="32" as="geometry" />
        </mxCell>
        <mxCell id="wPW2TgHlyFbGibVKd6zH-22" value="Block1" style="text;html=1;align=center;verticalAlign=middle;resizable=0;points=[];autosize=1;strokeColor=none;fillColor=none;" vertex="1" parent="1">
          <mxGeometry x="233" y="241" width="54" height="26" as="geometry" />
        </mxCell>
        <mxCell id="wPW2TgHlyFbGibVKd6zH-33" style="edgeStyle=orthogonalEdgeStyle;rounded=0;orthogonalLoop=1;jettySize=auto;html=1;exitX=0.5;exitY=1;exitDx=0;exitDy=0;exitPerimeter=0;" edge="1" parent="1" source="wPW2TgHlyFbGibVKd6zH-25">
          <mxGeometry relative="1" as="geometry">
            <mxPoint x="334" y="368" as="targetPoint" />
          </mxGeometry>
        </mxCell>
        <mxCell id="wPW2TgHlyFbGibVKd6zH-25" value="" style="html=1;whiteSpace=wrap;shape=isoCube2;backgroundOutline=1;isoAngle=15;fillColor=#FF99FF;" vertex="1" parent="1">
          <mxGeometry x="318.25" y="267" width="31.5" height="32" as="geometry" />
        </mxCell>
        <mxCell id="wPW2TgHlyFbGibVKd6zH-26" value="Block2" style="text;html=1;align=center;verticalAlign=middle;resizable=0;points=[];autosize=1;strokeColor=none;fillColor=none;" vertex="1" parent="1">
          <mxGeometry x="307" y="241" width="54" height="26" as="geometry" />
        </mxCell>
        <mxCell id="wPW2TgHlyFbGibVKd6zH-34" style="edgeStyle=orthogonalEdgeStyle;rounded=0;orthogonalLoop=1;jettySize=auto;html=1;exitX=0.5;exitY=1;exitDx=0;exitDy=0;exitPerimeter=0;" edge="1" parent="1" source="wPW2TgHlyFbGibVKd6zH-27">
          <mxGeometry relative="1" as="geometry">
            <mxPoint x="410" y="367" as="targetPoint" />
          </mxGeometry>
        </mxCell>
        <mxCell id="wPW2TgHlyFbGibVKd6zH-27" value="" style="html=1;whiteSpace=wrap;shape=isoCube2;backgroundOutline=1;isoAngle=15;fillColor=#FF6666;" vertex="1" parent="1">
          <mxGeometry x="394.25" y="267" width="31.5" height="32" as="geometry" />
        </mxCell>
        <mxCell id="wPW2TgHlyFbGibVKd6zH-28" value="Block9" style="text;html=1;align=center;verticalAlign=middle;resizable=0;points=[];autosize=1;strokeColor=none;fillColor=none;" vertex="1" parent="1">
          <mxGeometry x="397" y="241" width="54" height="26" as="geometry" />
        </mxCell>
        <mxCell id="wPW2TgHlyFbGibVKd6zH-29" value="..." style="text;html=1;align=center;verticalAlign=middle;whiteSpace=wrap;rounded=0;" vertex="1" parent="1">
          <mxGeometry x="341" y="264" width="60" height="30" as="geometry" />
        </mxCell>
        <mxCell id="wPW2TgHlyFbGibVKd6zH-39" style="edgeStyle=orthogonalEdgeStyle;rounded=0;orthogonalLoop=1;jettySize=auto;html=1;exitX=0.5;exitY=1;exitDx=0;exitDy=0;" edge="1" parent="1" source="wPW2TgHlyFbGibVKd6zH-35">
          <mxGeometry relative="1" as="geometry">
            <mxPoint x="190" y="480" as="targetPoint" />
          </mxGeometry>
        </mxCell>
        <mxCell id="wPW2TgHlyFbGibVKd6zH-35" value="Str=[ABC...J]" style="text;html=1;align=center;verticalAlign=middle;whiteSpace=wrap;rounded=0;" vertex="1" parent="1">
          <mxGeometry x="160" y="385" width="60" height="30" as="geometry" />
        </mxCell>
        <mxCell id="wPW2TgHlyFbGibVKd6zH-40" style="edgeStyle=orthogonalEdgeStyle;rounded=0;orthogonalLoop=1;jettySize=auto;html=1;exitX=0.5;exitY=1;exitDx=0;exitDy=0;" edge="1" parent="1" source="wPW2TgHlyFbGibVKd6zH-36">
          <mxGeometry relative="1" as="geometry">
            <mxPoint x="268.3333333333335" y="476.66666666666674" as="targetPoint" />
          </mxGeometry>
        </mxCell>
        <mxCell id="wPW2TgHlyFbGibVKd6zH-36" value="Str=[BC...JA]" style="text;html=1;align=center;verticalAlign=middle;whiteSpace=wrap;rounded=0;" vertex="1" parent="1">
          <mxGeometry x="238" y="385" width="60" height="30" as="geometry" />
        </mxCell>
        <mxCell id="wPW2TgHlyFbGibVKd6zH-41" style="edgeStyle=orthogonalEdgeStyle;rounded=0;orthogonalLoop=1;jettySize=auto;html=1;exitX=0.5;exitY=1;exitDx=0;exitDy=0;" edge="1" parent="1" source="wPW2TgHlyFbGibVKd6zH-37">
          <mxGeometry relative="1" as="geometry">
            <mxPoint x="343.3333333333335" y="480" as="targetPoint" />
          </mxGeometry>
        </mxCell>
        <mxCell id="wPW2TgHlyFbGibVKd6zH-37" value="Str=[C...JAB]" style="text;html=1;align=center;verticalAlign=middle;whiteSpace=wrap;rounded=0;" vertex="1" parent="1">
          <mxGeometry x="313" y="385" width="60" height="30" as="geometry" />
        </mxCell>
        <mxCell id="wPW2TgHlyFbGibVKd6zH-42" style="edgeStyle=orthogonalEdgeStyle;rounded=0;orthogonalLoop=1;jettySize=auto;html=1;exitX=0.5;exitY=1;exitDx=0;exitDy=0;" edge="1" parent="1" source="wPW2TgHlyFbGibVKd6zH-38">
          <mxGeometry relative="1" as="geometry">
            <mxPoint x="424.16666666666674" y="480" as="targetPoint" />
          </mxGeometry>
        </mxCell>
        <mxCell id="wPW2TgHlyFbGibVKd6zH-38" value="Str=[JAB...I]" style="text;html=1;align=center;verticalAlign=middle;whiteSpace=wrap;rounded=0;" vertex="1" parent="1">
          <mxGeometry x="394.25" y="385" width="60" height="30" as="geometry" />
        </mxCell>
        <mxCell id="wPW2TgHlyFbGibVKd6zH-43" value="&lt;font color=&quot;#66b2ff&quot;&gt;Print()&lt;/font&gt;" style="text;html=1;align=center;verticalAlign=middle;whiteSpace=wrap;rounded=0;" vertex="1" parent="1">
          <mxGeometry x="163" y="503" width="60" height="30" as="geometry" />
        </mxCell>
        <mxCell id="wPW2TgHlyFbGibVKd6zH-44" value="&lt;font color=&quot;#66b2ff&quot;&gt;Print()&lt;/font&gt;" style="text;html=1;align=center;verticalAlign=middle;whiteSpace=wrap;rounded=0;" vertex="1" parent="1">
          <mxGeometry x="238" y="503" width="60" height="30" as="geometry" />
        </mxCell>
        <mxCell id="wPW2TgHlyFbGibVKd6zH-45" value="&lt;font color=&quot;#66b2ff&quot;&gt;Print()&lt;/font&gt;" style="text;html=1;align=center;verticalAlign=middle;whiteSpace=wrap;rounded=0;" vertex="1" parent="1">
          <mxGeometry x="311" y="503" width="60" height="30" as="geometry" />
        </mxCell>
        <mxCell id="wPW2TgHlyFbGibVKd6zH-46" value="&lt;font color=&quot;#66b2ff&quot;&gt;Print()&lt;/font&gt;" style="text;html=1;align=center;verticalAlign=middle;whiteSpace=wrap;rounded=0;" vertex="1" parent="1">
          <mxGeometry x="392" y="503" width="60" height="30" as="geometry" />
        </mxCell>
        <mxCell id="wPW2TgHlyFbGibVKd6zH-47" value="" style="curved=1;endArrow=classic;html=1;rounded=0;strokeWidth=1;startSize=6;" edge="1" parent="1">
          <mxGeometry width="50" height="50" relative="1" as="geometry">
            <mxPoint x="602" y="98" as="sourcePoint" />
            <mxPoint x="592" y="158" as="targetPoint" />
            <Array as="points">
              <mxPoint x="612" y="98" />
              <mxPoint x="582" y="118" />
              <mxPoint x="612" y="128" />
              <mxPoint x="592" y="138" />
              <mxPoint x="582" y="128" />
            </Array>
          </mxGeometry>
        </mxCell>
        <mxCell id="wPW2TgHlyFbGibVKd6zH-57" value="" style="endArrow=classic;html=1;rounded=1;jumpSize=1;startSize=1;endSize=1;curved=0;fillColor=#fff2cc;strokeColor=#d6b656;" edge="1" parent="1">
          <mxGeometry width="50" height="50" relative="1" as="geometry">
            <mxPoint x="184" y="379" as="sourcePoint" />
            <mxPoint x="184" y="392" as="targetPoint" />
            <Array as="points">
              <mxPoint x="187" y="385" />
            </Array>
          </mxGeometry>
        </mxCell>
        <mxCell id="wPW2TgHlyFbGibVKd6zH-58" value="&lt;font style=&quot;font-size: 6px;&quot;&gt;Thr.0&lt;/font&gt;" style="text;strokeColor=none;fillColor=none;align=left;verticalAlign=middle;spacingLeft=4;spacingRight=4;overflow=hidden;points=[[0,0.5],[1,0.5]];portConstraint=eastwest;rotatable=0;whiteSpace=wrap;html=1;" vertex="1" parent="1">
          <mxGeometry x="172" y="361" width="26" height="17" as="geometry" />
        </mxCell>
        <mxCell id="wPW2TgHlyFbGibVKd6zH-59" value="" style="endArrow=classic;html=1;rounded=1;jumpSize=1;startSize=1;endSize=1;curved=0;fillColor=#fff2cc;strokeColor=#d6b656;" edge="1" parent="1">
          <mxGeometry width="50" height="50" relative="1" as="geometry">
            <mxPoint x="261.75" y="379" as="sourcePoint" />
            <mxPoint x="261.75" y="392" as="targetPoint" />
            <Array as="points">
              <mxPoint x="264.75" y="385" />
            </Array>
          </mxGeometry>
        </mxCell>
        <mxCell id="wPW2TgHlyFbGibVKd6zH-60" value="&lt;font style=&quot;font-size: 6px;&quot;&gt;Thr.0&lt;/font&gt;" style="text;strokeColor=none;fillColor=none;align=left;verticalAlign=middle;spacingLeft=4;spacingRight=4;overflow=hidden;points=[[0,0.5],[1,0.5]];portConstraint=eastwest;rotatable=0;whiteSpace=wrap;html=1;" vertex="1" parent="1">
          <mxGeometry x="249.75" y="361" width="26" height="17" as="geometry" />
        </mxCell>
        <mxCell id="wPW2TgHlyFbGibVKd6zH-61" value="" style="endArrow=classic;html=1;rounded=1;jumpSize=1;startSize=1;endSize=1;curved=0;fillColor=#fff2cc;strokeColor=#d6b656;" edge="1" parent="1">
          <mxGeometry width="50" height="50" relative="1" as="geometry">
            <mxPoint x="338" y="379" as="sourcePoint" />
            <mxPoint x="338" y="392" as="targetPoint" />
            <Array as="points">
              <mxPoint x="341" y="385" />
            </Array>
          </mxGeometry>
        </mxCell>
        <mxCell id="wPW2TgHlyFbGibVKd6zH-62" value="&lt;font style=&quot;font-size: 6px;&quot;&gt;Thr.0&lt;/font&gt;" style="text;strokeColor=none;fillColor=none;align=left;verticalAlign=middle;spacingLeft=4;spacingRight=4;overflow=hidden;points=[[0,0.5],[1,0.5]];portConstraint=eastwest;rotatable=0;whiteSpace=wrap;html=1;" vertex="1" parent="1">
          <mxGeometry x="326" y="361" width="26" height="17" as="geometry" />
        </mxCell>
        <mxCell id="wPW2TgHlyFbGibVKd6zH-63" value="" style="endArrow=classic;html=1;rounded=1;jumpSize=1;startSize=1;endSize=1;curved=0;fillColor=#fff2cc;strokeColor=#d6b656;" edge="1" parent="1">
          <mxGeometry width="50" height="50" relative="1" as="geometry">
            <mxPoint x="421" y="379" as="sourcePoint" />
            <mxPoint x="421" y="392" as="targetPoint" />
            <Array as="points">
              <mxPoint x="424" y="385" />
            </Array>
          </mxGeometry>
        </mxCell>
        <mxCell id="wPW2TgHlyFbGibVKd6zH-64" value="&lt;font style=&quot;font-size: 6px;&quot;&gt;Thr.0&lt;/font&gt;" style="text;strokeColor=none;fillColor=none;align=left;verticalAlign=middle;spacingLeft=4;spacingRight=4;overflow=hidden;points=[[0,0.5],[1,0.5]];portConstraint=eastwest;rotatable=0;whiteSpace=wrap;html=1;" vertex="1" parent="1">
          <mxGeometry x="409" y="361" width="26" height="17" as="geometry" />
        </mxCell>
        <mxCell id="wPW2TgHlyFbGibVKd6zH-69" value="" style="endArrow=classic;html=1;rounded=1;jumpSize=1;startSize=1;endSize=1;curved=0;fillColor=#f8cecc;strokeColor=#b85450;" edge="1" parent="1">
          <mxGeometry width="50" height="50" relative="1" as="geometry">
            <mxPoint x="203" y="379" as="sourcePoint" />
            <mxPoint x="194" y="392" as="targetPoint" />
            <Array as="points">
              <mxPoint x="206" y="385" />
            </Array>
          </mxGeometry>
        </mxCell>
        <mxCell id="wPW2TgHlyFbGibVKd6zH-70" value="&lt;font style=&quot;font-size: 6px;&quot;&gt;Thr.1&lt;/font&gt;" style="text;strokeColor=none;fillColor=none;align=left;verticalAlign=middle;spacingLeft=4;spacingRight=4;overflow=hidden;points=[[0,0.5],[1,0.5]];portConstraint=eastwest;rotatable=0;whiteSpace=wrap;html=1;" vertex="1" parent="1">
          <mxGeometry x="191" y="361" width="26" height="17" as="geometry" />
        </mxCell>
        <mxCell id="wPW2TgHlyFbGibVKd6zH-71" value="" style="endArrow=classic;html=1;rounded=1;jumpSize=1;startSize=1;endSize=1;curved=0;fillColor=#f8cecc;strokeColor=#b85450;" edge="1" parent="1">
          <mxGeometry width="50" height="50" relative="1" as="geometry">
            <mxPoint x="281" y="379" as="sourcePoint" />
            <mxPoint x="272" y="392" as="targetPoint" />
            <Array as="points">
              <mxPoint x="284" y="385" />
            </Array>
          </mxGeometry>
        </mxCell>
        <mxCell id="wPW2TgHlyFbGibVKd6zH-72" value="&lt;font style=&quot;font-size: 6px;&quot;&gt;Thr.1&lt;/font&gt;" style="text;strokeColor=none;fillColor=none;align=left;verticalAlign=middle;spacingLeft=4;spacingRight=4;overflow=hidden;points=[[0,0.5],[1,0.5]];portConstraint=eastwest;rotatable=0;whiteSpace=wrap;html=1;" vertex="1" parent="1">
          <mxGeometry x="269" y="361" width="26" height="17" as="geometry" />
        </mxCell>
        <mxCell id="wPW2TgHlyFbGibVKd6zH-73" value="" style="endArrow=classic;html=1;rounded=1;jumpSize=1;startSize=1;endSize=1;curved=0;fillColor=#f8cecc;strokeColor=#b85450;" edge="1" parent="1">
          <mxGeometry width="50" height="50" relative="1" as="geometry">
            <mxPoint x="437" y="379" as="sourcePoint" />
            <mxPoint x="428" y="392" as="targetPoint" />
            <Array as="points">
              <mxPoint x="440" y="385" />
            </Array>
          </mxGeometry>
        </mxCell>
        <mxCell id="wPW2TgHlyFbGibVKd6zH-74" value="&lt;font style=&quot;font-size: 6px;&quot;&gt;Thr.1&lt;/font&gt;" style="text;strokeColor=none;fillColor=none;align=left;verticalAlign=middle;spacingLeft=4;spacingRight=4;overflow=hidden;points=[[0,0.5],[1,0.5]];portConstraint=eastwest;rotatable=0;whiteSpace=wrap;html=1;" vertex="1" parent="1">
          <mxGeometry x="425" y="361" width="26" height="17" as="geometry" />
        </mxCell>
        <mxCell id="wPW2TgHlyFbGibVKd6zH-81" value="" style="endArrow=classic;html=1;rounded=1;jumpSize=1;startSize=1;endSize=1;curved=0;fillColor=#f8cecc;strokeColor=#b85450;" edge="1" parent="1">
          <mxGeometry width="50" height="50" relative="1" as="geometry">
            <mxPoint x="357" y="379" as="sourcePoint" />
            <mxPoint x="348" y="392" as="targetPoint" />
            <Array as="points">
              <mxPoint x="360" y="385" />
            </Array>
          </mxGeometry>
        </mxCell>
        <mxCell id="wPW2TgHlyFbGibVKd6zH-82" value="&lt;font style=&quot;font-size: 6px;&quot;&gt;Thr.1&lt;/font&gt;" style="text;strokeColor=none;fillColor=none;align=left;verticalAlign=middle;spacingLeft=4;spacingRight=4;overflow=hidden;points=[[0,0.5],[1,0.5]];portConstraint=eastwest;rotatable=0;whiteSpace=wrap;html=1;" vertex="1" parent="1">
          <mxGeometry x="345" y="361" width="26" height="17" as="geometry" />
        </mxCell>
        <mxCell id="wPW2TgHlyFbGibVKd6zH-89" value="" style="endArrow=classic;html=1;rounded=1;jumpSize=1;startSize=1;endSize=1;curved=0;fillColor=#dae8fc;strokeColor=#6c8ebf;" edge="1" parent="1">
          <mxGeometry width="50" height="50" relative="1" as="geometry">
            <mxPoint x="453" y="379" as="sourcePoint" />
            <mxPoint x="454" y="391" as="targetPoint" />
            <Array as="points">
              <mxPoint x="456" y="385" />
            </Array>
          </mxGeometry>
        </mxCell>
        <mxCell id="wPW2TgHlyFbGibVKd6zH-90" value="&lt;font style=&quot;font-size: 6px;&quot;&gt;Thr.9&lt;/font&gt;" style="text;strokeColor=none;fillColor=none;align=left;verticalAlign=middle;spacingLeft=4;spacingRight=4;overflow=hidden;points=[[0,0.5],[1,0.5]];portConstraint=eastwest;rotatable=0;whiteSpace=wrap;html=1;" vertex="1" parent="1">
          <mxGeometry x="441" y="361" width="26" height="17" as="geometry" />
        </mxCell>
        <mxCell id="wPW2TgHlyFbGibVKd6zH-91" value="" style="endArrow=classic;html=1;rounded=1;jumpSize=1;startSize=1;endSize=1;curved=0;fillColor=#dae8fc;strokeColor=#6c8ebf;" edge="1" parent="1">
          <mxGeometry width="50" height="50" relative="1" as="geometry">
            <mxPoint x="373" y="379" as="sourcePoint" />
            <mxPoint x="374" y="391" as="targetPoint" />
            <Array as="points">
              <mxPoint x="376" y="385" />
            </Array>
          </mxGeometry>
        </mxCell>
        <mxCell id="wPW2TgHlyFbGibVKd6zH-92" value="&lt;font style=&quot;font-size: 6px;&quot;&gt;Thr.9&lt;/font&gt;" style="text;strokeColor=none;fillColor=none;align=left;verticalAlign=middle;spacingLeft=4;spacingRight=4;overflow=hidden;points=[[0,0.5],[1,0.5]];portConstraint=eastwest;rotatable=0;whiteSpace=wrap;html=1;" vertex="1" parent="1">
          <mxGeometry x="361" y="361" width="26" height="17" as="geometry" />
        </mxCell>
        <mxCell id="wPW2TgHlyFbGibVKd6zH-93" value="" style="endArrow=classic;html=1;rounded=1;jumpSize=1;startSize=1;endSize=1;curved=0;fillColor=#dae8fc;strokeColor=#6c8ebf;" edge="1" parent="1">
          <mxGeometry width="50" height="50" relative="1" as="geometry">
            <mxPoint x="297" y="379" as="sourcePoint" />
            <mxPoint x="298" y="391" as="targetPoint" />
            <Array as="points">
              <mxPoint x="300" y="385" />
            </Array>
          </mxGeometry>
        </mxCell>
        <mxCell id="wPW2TgHlyFbGibVKd6zH-94" value="&lt;font style=&quot;font-size: 6px;&quot;&gt;Thr.9&lt;/font&gt;" style="text;strokeColor=none;fillColor=none;align=left;verticalAlign=middle;spacingLeft=4;spacingRight=4;overflow=hidden;points=[[0,0.5],[1,0.5]];portConstraint=eastwest;rotatable=0;whiteSpace=wrap;html=1;" vertex="1" parent="1">
          <mxGeometry x="285" y="361" width="26" height="17" as="geometry" />
        </mxCell>
        <mxCell id="wPW2TgHlyFbGibVKd6zH-95" value="" style="endArrow=classic;html=1;rounded=1;jumpSize=1;startSize=1;endSize=1;curved=0;fillColor=#dae8fc;strokeColor=#6c8ebf;" edge="1" parent="1">
          <mxGeometry width="50" height="50" relative="1" as="geometry">
            <mxPoint x="219" y="379" as="sourcePoint" />
            <mxPoint x="220" y="391" as="targetPoint" />
            <Array as="points">
              <mxPoint x="222" y="385" />
            </Array>
          </mxGeometry>
        </mxCell>
        <mxCell id="wPW2TgHlyFbGibVKd6zH-96" value="&lt;font style=&quot;font-size: 6px;&quot;&gt;Thr.9&lt;/font&gt;" style="text;strokeColor=none;fillColor=none;align=left;verticalAlign=middle;spacingLeft=4;spacingRight=4;overflow=hidden;points=[[0,0.5],[1,0.5]];portConstraint=eastwest;rotatable=0;whiteSpace=wrap;html=1;" vertex="1" parent="1">
          <mxGeometry x="207" y="361" width="26" height="17" as="geometry" />
        </mxCell>
        <mxCell id="wPW2TgHlyFbGibVKd6zH-99" value="&lt;font style=&quot;font-size: 6px;&quot;&gt;...&lt;/font&gt;" style="text;html=1;align=center;verticalAlign=middle;whiteSpace=wrap;rounded=0;" vertex="1" parent="1">
          <mxGeometry x="209" y="383" width="6" height="2" as="geometry" />
        </mxCell>
        <mxCell id="wPW2TgHlyFbGibVKd6zH-100" value="&lt;font style=&quot;font-size: 6px;&quot;&gt;...&lt;/font&gt;" style="text;html=1;align=center;verticalAlign=middle;whiteSpace=wrap;rounded=0;" vertex="1" parent="1">
          <mxGeometry x="287" y="383" width="6" height="2" as="geometry" />
        </mxCell>
        <mxCell id="wPW2TgHlyFbGibVKd6zH-101" value="&lt;font style=&quot;font-size: 6px;&quot;&gt;...&lt;/font&gt;" style="text;html=1;align=center;verticalAlign=middle;whiteSpace=wrap;rounded=0;" vertex="1" parent="1">
          <mxGeometry x="365" y="385" width="6" height="2" as="geometry" />
        </mxCell>
        <mxCell id="wPW2TgHlyFbGibVKd6zH-102" value="&lt;font style=&quot;font-size: 6px;&quot;&gt;...&lt;/font&gt;" style="text;html=1;align=center;verticalAlign=middle;whiteSpace=wrap;rounded=0;" vertex="1" parent="1">
          <mxGeometry x="445" y="385" width="6" height="2" as="geometry" />
        </mxCell>
      </root>
    </mxGraphModel>
  </diagram>
</mxfile>
